<svg xmlns="http://www.w3.org/2000/svg" viewBox="0 0 2244 786" width="2244" height="786" role="img" aria-label="CCv3 End-to-End Data-Flow Traces">
<defs><marker id="ah" viewBox="0 0 10 10" refX="9" refY="5" markerWidth="7" markerHeight="7" orient="auto-start-reverse" markerUnits="userSpaceOnUse"><path d="M 0 1 L 9 5 L 0 9 z" fill="context-stroke"/></marker></defs>
<rect x="0" y="0" width="2244" height="786" rx="16" fill="#ffffff"/>
<text x="80" y="52" font-family="system-ui,Segoe UI,sans-serif" font-size="28" font-weight="800" fill="#0b1324">CCv3 End-to-End Data-Flow Traces</text>
<text x="80" y="78" font-family="system-ui,Segoe UI,sans-serif" font-size="15" fill="#64748b">four grounded traces · health nodes indicate gap/honing steps</text>
<rect x="66" y="134" width="2140" height="98" rx="12" fill="none" stroke="#22c55e" stroke-width="1.5" stroke-dasharray="2 6" opacity="0.7"/>
<text x="80" y="132" font-family="system-ui,Segoe UI,sans-serif" font-size="15" font-weight="800" letter-spacing="0.04em" fill="#22c55e">Prompt → Recall</text>
<rect x="66" y="284" width="2140" height="98" rx="12" fill="none" stroke="#22c55e" stroke-width="1.5" stroke-dasharray="2 6" opacity="0.7"/>
<text x="80" y="282" font-family="system-ui,Segoe UI,sans-serif" font-size="15" font-weight="800" letter-spacing="0.04em" fill="#22c55e">Store Learning</text>
<rect x="66" y="434" width="2140" height="98" rx="12" fill="none" stroke="#facc15" stroke-width="1.5" stroke-dasharray="2 6" opacity="0.7"/>
<text x="80" y="432" font-family="system-ui,Segoe UI,sans-serif" font-size="15" font-weight="800" letter-spacing="0.04em" fill="#facc15">Hook Edit Flow</text>
<rect x="66" y="584" width="2140" height="98" rx="12" fill="none" stroke="#06b6d4" stroke-width="1.5" stroke-dasharray="2 6" opacity="0.7"/>
<text x="80" y="582" font-family="system-ui,Segoe UI,sans-serif" font-size="15" font-weight="800" letter-spacing="0.04em" fill="#06b6d4">/code-intel Query</text>
<path d="M 328.0 183.0 Q 356.0 183.0 384.0 183.0" fill="none" stroke="#495057" stroke-width="2" marker-end="url(#ah)"/>
<path d="M 632.0 183.0 Q 660.0 183.0 688.0 183.0" fill="none" stroke="#495057" stroke-width="2" marker-end="url(#ah)"/>
<path d="M 936.0 183.0 Q 964.0 183.0 992.0 183.0" fill="none" stroke="#495057" stroke-width="2" marker-end="url(#ah)"/>
<rect x="855.4" y="174.0" width="217.2" height="16" rx="4" fill="#ffffff" opacity="0.92"/>
<text x="964.0" y="186.0" text-anchor="middle" font-family="system-ui,sans-serif" font-size="10.5" fill="#495057">load-bearing order: write before read</text>
<path d="M 1240.0 183.0 Q 1268.0 183.0 1296.0 183.0" fill="none" stroke="#495057" stroke-width="2" marker-end="url(#ah)"/>
<path d="M 1544.0 183.0 Q 1572.0 183.0 1600.0 183.0" fill="none" stroke="#495057" stroke-width="2" marker-end="url(#ah)"/>
<path d="M 1848.0 183.0 Q 1876.0 183.0 1904.0 183.0" fill="none" stroke="#495057" stroke-width="2" marker-end="url(#ah)"/>
<path d="M 328.0 333.0 Q 660.0 333.0 992.0 333.0" fill="none" stroke="#868e96" stroke-width="2" stroke-dasharray="6 5" marker-end="url(#ah)"/>
<rect x="576.6" y="324.0" width="166.8" height="16" rx="4" fill="#ffffff" opacity="0.92"/>
<text x="660.0" y="336.0" text-anchor="middle" font-family="system-ui,sans-serif" font-size="10.5" fill="#868e96">DEAD — never fires (D10c-02)</text>
<path d="M 632.0 333.0 Q 660.0 333.0 688.0 333.0" fill="none" stroke="#495057" stroke-width="2" marker-end="url(#ah)"/>
<path d="M 936.0 333.0 Q 964.0 333.0 992.0 333.0" fill="none" stroke="#495057" stroke-width="2" marker-end="url(#ah)"/>
<path d="M 1240.0 333.0 Q 1268.0 333.0 1296.0 333.0" fill="none" stroke="#495057" stroke-width="2" marker-end="url(#ah)"/>
<path d="M 1544.0 333.0 Q 1572.0 333.0 1600.0 333.0" fill="none" stroke="#495057" stroke-width="2" marker-end="url(#ah)"/>
<path d="M 1848.0 333.0 Q 1876.0 333.0 1904.0 333.0" fill="none" stroke="#495057" stroke-width="2" marker-end="url(#ah)"/>
<path d="M 1544.0 333.0 Q 1724.0 333.0 1904.0 333.0" fill="none" stroke="#e8590c" stroke-width="2" stroke-dasharray="6 5" marker-end="url(#ah)"/>
<rect x="1643.4" y="324.0" width="161.2" height="16" rx="4" fill="#ffffff" opacity="0.92"/>
<text x="1724.0" y="336.0" text-anchor="middle" font-family="system-ui,sans-serif" font-size="10.5" fill="#e8590c">FTS-only if BGE daemon down</text>
<path d="M 328.0 483.0 Q 356.0 483.0 384.0 483.0" fill="none" stroke="#495057" stroke-width="2" marker-end="url(#ah)"/>
<path d="M 632.0 483.0 Q 660.0 483.0 688.0 483.0" fill="none" stroke="#495057" stroke-width="2" marker-end="url(#ah)"/>
<path d="M 936.0 483.0 Q 964.0 483.0 992.0 483.0" fill="none" stroke="#495057" stroke-width="2" marker-end="url(#ah)"/>
<path d="M 1240.0 483.0 Q 1268.0 483.0 1296.0 483.0" fill="none" stroke="#495057" stroke-width="2" marker-end="url(#ah)"/>
<path d="M 1544.0 483.0 Q 1572.0 483.0 1600.0 483.0" fill="none" stroke="#495057" stroke-width="2" marker-end="url(#ah)"/>
<path d="M 1848.0 483.0 Q 1876.0 483.0 1904.0 483.0" fill="none" stroke="#495057" stroke-width="2" marker-end="url(#ah)"/>
<path d="M 328.0 633.0 Q 356.0 633.0 384.0 633.0" fill="none" stroke="#495057" stroke-width="2" marker-end="url(#ah)"/>
<path d="M 632.0 633.0 Q 660.0 633.0 688.0 633.0" fill="none" stroke="#495057" stroke-width="2" marker-end="url(#ah)"/>
<path d="M 936.0 633.0 Q 964.0 633.0 992.0 633.0" fill="none" stroke="#495057" stroke-width="2" marker-end="url(#ah)"/>
<path d="M 1240.0 633.0 Q 1268.0 633.0 1296.0 633.0" fill="none" stroke="#495057" stroke-width="2" marker-end="url(#ah)"/>
<path d="M 1544.0 633.0 Q 1572.0 633.0 1600.0 633.0" fill="none" stroke="#495057" stroke-width="2" marker-end="url(#ah)"/>
<path d="M 1848.0 633.0 Q 1876.0 633.0 1904.0 633.0" fill="none" stroke="#495057" stroke-width="2" marker-end="url(#ah)"/>
<path d="M 1240.0 633.0 Q 1420.0 633.0 1600.0 633.0" fill="none" stroke="#e8590c" stroke-width="2" stroke-dasharray="6 5" marker-end="url(#ah)"/>
<rect x="1311.4" y="624.0" width="217.2" height="16" rx="4" fill="#ffffff" opacity="0.92"/>
<text x="1420.0" y="636.0" text-anchor="middle" font-family="system-ui,sans-serif" font-size="10.5" fill="#e8590c">TLDR bypass when codegraph absent/off</text>
<rect x="80" y="140" width="248" height="86" rx="10" fill="#ebfbee" stroke="#2f9e44" stroke-width="2"/>
<rect x="80" y="140" width="5" height="86" rx="2" fill="#2f9e44"/>
<text x="204" y="176" text-anchor="middle" font-family="system-ui,Segoe UI,sans-serif" font-size="15" font-weight="700" fill="#0b1324">Heartbeat</text>
<text x="204" y="196" text-anchor="middle" font-family="ui-monospace,Consolas,monospace" font-size="11" fill="#475569">heartbeat.ts · Postgres session</text>
<text x="204" y="211" text-anchor="middle" font-family="ui-monospace,Consolas,monospace" font-size="11" fill="#475569">update</text>
<rect x="384" y="140" width="248" height="86" rx="10" fill="#ebfbee" stroke="#2f9e44" stroke-width="2"/>
<rect x="384" y="140" width="5" height="86" rx="2" fill="#2f9e44"/>
<text x="508" y="176" text-anchor="middle" font-family="system-ui,Segoe UI,sans-serif" font-size="15" font-weight="700" fill="#0b1324">Skill Activation</text>
<text x="508" y="196" text-anchor="middle" font-family="ui-monospace,Consolas,monospace" font-size="11" fill="#475569">skill-activation-prompt.ts ·</text>
<text x="508" y="211" text-anchor="middle" font-family="ui-monospace,Consolas,monospace" font-size="11" fill="#475569">keyword inject</text>
<rect x="688" y="140" width="248" height="86" rx="10" fill="#fff9db" stroke="#f08c00" stroke-width="2"/>
<rect x="688" y="140" width="5" height="86" rx="2" fill="#f08c00"/>
<text x="812" y="176" text-anchor="middle" font-family="system-ui,Segoe UI,sans-serif" font-size="15" font-weight="700" fill="#0b1324">Bus Turn Write</text>
<text x="812" y="196" text-anchor="middle" font-family="ui-monospace,Consolas,monospace" font-size="11" fill="#475569">bus-session-populator.ts ·</text>
<text x="812" y="211" text-anchor="middle" font-family="ui-monospace,Consolas,monospace" font-size="11" fill="#475569">setIntent+bumpTurn</text>
<rect x="992" y="140" width="248" height="86" rx="10" fill="#fff9db" stroke="#f08c00" stroke-width="2"/>
<rect x="992" y="140" width="5" height="86" rx="2" fill="#f08c00"/>
<text x="1116" y="176" text-anchor="middle" font-family="system-ui,Segoe UI,sans-serif" font-size="15" font-weight="700" fill="#0b1324">Memory Recall</text>
<text x="1116" y="196" text-anchor="middle" font-family="ui-monospace,Consolas,monospace" font-size="11" fill="#475569">memory-awareness.ts · 22-32s</text>
<text x="1116" y="211" text-anchor="middle" font-family="ui-monospace,Consolas,monospace" font-size="11" fill="#475569">serial spawns</text>
<rect x="1296" y="140" width="248" height="86" rx="10" fill="#ebfbee" stroke="#2f9e44" stroke-width="2"/>
<rect x="1296" y="140" width="5" height="86" rx="2" fill="#2f9e44"/>
<text x="1420" y="176" text-anchor="middle" font-family="system-ui,Segoe UI,sans-serif" font-size="15" font-weight="700" fill="#0b1324">Maestro Detect</text>
<text x="1420" y="196" text-anchor="middle" font-family="ui-monospace,Consolas,monospace" font-size="11" fill="#475569">maestro-detector.ts · writes</text>
<text x="1420" y="211" text-anchor="middle" font-family="ui-monospace,Consolas,monospace" font-size="11" fill="#475569">state.json</text>
<rect x="1600" y="140" width="248" height="86" rx="10" fill="#ebfbee" stroke="#2f9e44" stroke-width="2"/>
<rect x="1600" y="140" width="5" height="86" rx="2" fill="#2f9e44"/>
<text x="1724" y="176" text-anchor="middle" font-family="system-ui,Segoe UI,sans-serif" font-size="15" font-weight="700" fill="#0b1324">Confirm Detect</text>
<text x="1724" y="196" text-anchor="middle" font-family="ui-monospace,Consolas,monospace" font-size="11" fill="#475569">user-confirmation-detector.ts ·</text>
<text x="1724" y="211" text-anchor="middle" font-family="ui-monospace,Consolas,monospace" font-size="11" fill="#475569">resolution check</text>
<rect x="1904" y="140" width="248" height="86" rx="10" fill="#fff9db" stroke="#f08c00" stroke-width="2"/>
<rect x="1904" y="140" width="5" height="86" rx="2" fill="#f08c00"/>
<text x="2028" y="176" text-anchor="middle" font-family="system-ui,Segoe UI,sans-serif" font-size="15" font-weight="700" fill="#0b1324">Braintrust Span</text>
<text x="2028" y="196" text-anchor="middle" font-family="ui-monospace,Consolas,monospace" font-size="11" fill="#475569">braintrust_hooks.py · root span</text>
<text x="2028" y="211" text-anchor="middle" font-family="ui-monospace,Consolas,monospace" font-size="11" fill="#475569">open</text>
<rect x="80" y="290" width="248" height="86" rx="10" fill="#fff0f0" stroke="#e03131" stroke-width="2"/>
<rect x="80" y="290" width="5" height="86" rx="2" fill="#e03131"/>
<text x="204" y="326" text-anchor="middle" font-family="system-ui,Segoe UI,sans-serif" font-size="15" font-weight="700" fill="#0b1324">Agent Error Capture</text>
<text x="204" y="346" text-anchor="middle" font-family="ui-monospace,Consolas,monospace" font-size="11" fill="#475569">agent-error-capture.ts · DEAD</text>
<text x="204" y="361" text-anchor="middle" font-family="ui-monospace,Consolas,monospace" font-size="11" fill="#475569">Agent matcher</text>
<rect x="384" y="290" width="248" height="86" rx="10" fill="#ebfbee" stroke="#2f9e44" stroke-width="2"/>
<rect x="384" y="290" width="5" height="86" rx="2" fill="#2f9e44"/>
<text x="508" y="326" text-anchor="middle" font-family="system-ui,Segoe UI,sans-serif" font-size="15" font-weight="700" fill="#0b1324">User Confirms</text>
<text x="508" y="346" text-anchor="middle" font-family="ui-monospace,Consolas,monospace" font-size="11" fill="#475569">user-confirmation-detector.ts ·</text>
<text x="508" y="361" text-anchor="middle" font-family="ui-monospace,Consolas,monospace" font-size="11" fill="#475569">active path</text>
<rect x="688" y="290" width="248" height="86" rx="10" fill="#ebfbee" stroke="#2f9e44" stroke-width="2"/>
<rect x="688" y="290" width="5" height="86" rx="2" fill="#2f9e44"/>
<text x="812" y="326" text-anchor="middle" font-family="system-ui,Segoe UI,sans-serif" font-size="15" font-weight="700" fill="#0b1324">Smarter Everyday</text>
<text x="812" y="346" text-anchor="middle" font-family="ui-monospace,Consolas,monospace" font-size="11" fill="#475569">smarter-everyday.ts · 5-state</text>
<text x="812" y="361" text-anchor="middle" font-family="ui-monospace,Consolas,monospace" font-size="11" fill="#475569">machine</text>
<rect x="992" y="290" width="248" height="86" rx="10" fill="#ebfbee" stroke="#2f9e44" stroke-width="2"/>
<rect x="992" y="290" width="5" height="86" rx="2" fill="#2f9e44"/>
<text x="1116" y="326" text-anchor="middle" font-family="system-ui,Segoe UI,sans-serif" font-size="15" font-weight="700" fill="#0b1324">TS Quality Gate</text>
<text x="1116" y="346" text-anchor="middle" font-family="ui-monospace,Consolas,monospace" font-size="11" fill="#475569">memory-quality-scorer.ts · score</text>
<text x="1116" y="361" text-anchor="middle" font-family="ui-monospace,Consolas,monospace" font-size="11" fill="#475569">0-10</text>
<rect x="1296" y="290" width="248" height="86" rx="10" fill="#ebfbee" stroke="#2f9e44" stroke-width="2"/>
<rect x="1296" y="290" width="5" height="86" rx="2" fill="#2f9e44"/>
<text x="1420" y="326" text-anchor="middle" font-family="system-ui,Segoe UI,sans-serif" font-size="15" font-weight="700" fill="#0b1324">store_learning.py</text>
<text x="1420" y="346" text-anchor="middle" font-family="ui-monospace,Consolas,monospace" font-size="11" fill="#475569">argv spawnSync · QW-01</text>
<text x="1420" y="361" text-anchor="middle" font-family="ui-monospace,Consolas,monospace" font-size="11" fill="#475569">shell-injection closed</text>
<rect x="1600" y="290" width="248" height="86" rx="10" fill="#fff9db" stroke="#f08c00" stroke-width="2"/>
<rect x="1600" y="290" width="5" height="86" rx="2" fill="#f08c00"/>
<text x="1724" y="326" text-anchor="middle" font-family="system-ui,Segoe UI,sans-serif" font-size="15" font-weight="700" fill="#0b1324">BGE Daemon</text>
<text x="1724" y="346" text-anchor="middle" font-family="ui-monospace,Consolas,monospace" font-size="11" fill="#475569">embedding_daemon.py · 1024-dim</text>
<text x="1724" y="361" text-anchor="middle" font-family="ui-monospace,Consolas,monospace" font-size="11" fill="#475569">vector</text>
<rect x="1904" y="290" width="248" height="86" rx="10" fill="#ebfbee" stroke="#2f9e44" stroke-width="2"/>
<rect x="1904" y="290" width="5" height="86" rx="2" fill="#2f9e44"/>
<text x="2028" y="326" text-anchor="middle" font-family="system-ui,Segoe UI,sans-serif" font-size="15" font-weight="700" fill="#0b1324">Postgres Insert</text>
<text x="2028" y="346" text-anchor="middle" font-family="ui-monospace,Consolas,monospace" font-size="11" fill="#475569">archival_memory · 0.85 sim dedup</text>
<text x="2028" y="361" text-anchor="middle" font-family="ui-monospace,Consolas,monospace" font-size="11" fill="#475569">check</text>
<rect x="80" y="440" width="248" height="86" rx="10" fill="#ebfbee" stroke="#2f9e44" stroke-width="2"/>
<rect x="80" y="440" width="5" height="86" rx="2" fill="#2f9e44"/>
<text x="204" y="476" text-anchor="middle" font-family="system-ui,Segoe UI,sans-serif" font-size="15" font-weight="700" fill="#0b1324">Braintrust Record</text>
<text x="204" y="496" text-anchor="middle" font-family="ui-monospace,Consolas,monospace" font-size="11" fill="#475569">braintrust_hooks.py · all</text>
<text x="204" y="511" text-anchor="middle" font-family="ui-monospace,Consolas,monospace" font-size="11" fill="#475569">PostToolUse</text>
<rect x="384" y="440" width="248" height="86" rx="10" fill="#ebfbee" stroke="#2f9e44" stroke-width="2"/>
<rect x="384" y="440" width="5" height="86" rx="2" fill="#2f9e44"/>
<text x="508" y="476" text-anchor="middle" font-family="system-ui,Segoe UI,sans-serif" font-size="15" font-weight="700" fill="#0b1324">Smarter Everyday</text>
<text x="508" y="496" text-anchor="middle" font-family="ui-monospace,Consolas,monospace" font-size="11" fill="#475569">smarter-everyday.ts · tracks</text>
<text x="508" y="511" text-anchor="middle" font-family="ui-monospace,Consolas,monospace" font-size="11" fill="#475569">edited file</text>
<rect x="688" y="440" width="248" height="86" rx="10" fill="#ebfbee" stroke="#2f9e44" stroke-width="2"/>
<rect x="688" y="440" width="5" height="86" rx="2" fill="#2f9e44"/>
<text x="812" y="476" text-anchor="middle" font-family="system-ui,Segoe UI,sans-serif" font-size="15" font-weight="700" fill="#0b1324">Import Validator</text>
<text x="812" y="496" text-anchor="middle" font-family="ui-monospace,Consolas,monospace" font-size="11" fill="#475569">import-validator.ts · path verify</text>
<rect x="992" y="440" width="248" height="86" rx="10" fill="#fff0f0" stroke="#e03131" stroke-width="2"/>
<rect x="992" y="440" width="5" height="86" rx="2" fill="#e03131"/>
<text x="1116" y="476" text-anchor="middle" font-family="system-ui,Segoe UI,sans-serif" font-size="15" font-weight="700" fill="#0b1324">TS Diagnostics</text>
<text x="1116" y="496" text-anchor="middle" font-family="ui-monospace,Consolas,monospace" font-size="11" fill="#475569">post-edit-diagnostics.ts · NOT</text>
<text x="1116" y="511" text-anchor="middle" font-family="ui-monospace,Consolas,monospace" font-size="11" fill="#475569">WIRED</text>
<rect x="1296" y="440" width="248" height="86" rx="10" fill="#fff0f0" stroke="#e03131" stroke-width="2"/>
<rect x="1296" y="440" width="5" height="86" rx="2" fill="#e03131"/>
<text x="1420" y="476" text-anchor="middle" font-family="system-ui,Segoe UI,sans-serif" font-size="15" font-weight="700" fill="#0b1324">Emit Audit</text>
<text x="1420" y="496" text-anchor="middle" font-family="ui-monospace,Consolas,monospace" font-size="11" fill="#475569">audit-braintrust-emits.sh · manual</text>
<text x="1420" y="511" text-anchor="middle" font-family="ui-monospace,Consolas,monospace" font-size="11" fill="#475569">only</text>
<rect x="1600" y="440" width="248" height="86" rx="10" fill="#fff0f0" stroke="#e03131" stroke-width="2"/>
<rect x="1600" y="440" width="5" height="86" rx="2" fill="#e03131"/>
<text x="1724" y="476" text-anchor="middle" font-family="system-ui,Segoe UI,sans-serif" font-size="15" font-weight="700" fill="#0b1324">npm Build</text>
<text x="1724" y="496" text-anchor="middle" font-family="ui-monospace,Consolas,monospace" font-size="11" fill="#475569">hooks/package.json · manual</text>
<text x="1724" y="511" text-anchor="middle" font-family="ui-monospace,Consolas,monospace" font-size="11" fill="#475569">compile step</text>
<rect x="1904" y="440" width="248" height="86" rx="10" fill="#fff9db" stroke="#f08c00" stroke-width="2"/>
<rect x="1904" y="440" width="5" height="86" rx="2" fill="#f08c00"/>
<text x="2028" y="476" text-anchor="middle" font-family="system-ui,Segoe UI,sans-serif" font-size="15" font-weight="700" fill="#0b1324">Forward Sync</text>
<text x="2028" y="496" text-anchor="middle" font-family="ui-monospace,Consolas,monospace" font-size="11" fill="#475569">sync-to-active.sh · post-commit</text>
<text x="2028" y="511" text-anchor="middle" font-family="ui-monospace,Consolas,monospace" font-size="11" fill="#475569">async</text>
<rect x="80" y="590" width="248" height="86" rx="10" fill="#fff9db" stroke="#f08c00" stroke-width="2"/>
<rect x="80" y="590" width="5" height="86" rx="2" fill="#f08c00"/>
<text x="204" y="626" text-anchor="middle" font-family="system-ui,Segoe UI,sans-serif" font-size="15" font-weight="700" fill="#0b1324">Enforcer (OFF)</text>
<text x="204" y="646" text-anchor="middle" font-family="ui-monospace,Consolas,monospace" font-size="11" fill="#475569">code-intel-enforcer.ts · default</text>
<text x="204" y="661" text-anchor="middle" font-family="ui-monospace,Consolas,monospace" font-size="11" fill="#475569">inert</text>
<rect x="384" y="590" width="248" height="86" rx="10" fill="#ebfbee" stroke="#2f9e44" stroke-width="2"/>
<rect x="384" y="590" width="5" height="86" rx="2" fill="#2f9e44"/>
<text x="508" y="626" text-anchor="middle" font-family="system-ui,Segoe UI,sans-serif" font-size="15" font-weight="700" fill="#0b1324">Facade Parse</text>
<text x="508" y="646" text-anchor="middle" font-family="ui-monospace,Consolas,monospace" font-size="11" fill="#475569">code-intel.mjs · cmd +</text>
<text x="508" y="661" text-anchor="middle" font-family="ui-monospace,Consolas,monospace" font-size="11" fill="#475569">correlation_id</text>
<rect x="688" y="590" width="248" height="86" rx="10" fill="#fff9db" stroke="#f08c00" stroke-width="2"/>
<rect x="688" y="590" width="5" height="86" rx="2" fill="#f08c00"/>
<text x="812" y="626" text-anchor="middle" font-family="system-ui,Segoe UI,sans-serif" font-size="15" font-weight="700" fill="#0b1324">Bus Discovery</text>
<text x="812" y="646" text-anchor="middle" font-family="ui-monospace,Consolas,monospace" font-size="11" fill="#475569">discoverBus · fail-open</text>
<text x="812" y="661" text-anchor="middle" font-family="ui-monospace,Consolas,monospace" font-size="11" fill="#475569">best-effort</text>
<rect x="992" y="590" width="248" height="86" rx="10" fill="#ebfbee" stroke="#2f9e44" stroke-width="2"/>
<rect x="992" y="590" width="5" height="86" rx="2" fill="#2f9e44"/>
<text x="1116" y="626" text-anchor="middle" font-family="system-ui,Segoe UI,sans-serif" font-size="15" font-weight="700" fill="#0b1324">Kill-Switch + Fresh</text>
<text x="1116" y="646" text-anchor="middle" font-family="ui-monospace,Consolas,monospace" font-size="11" fill="#475569">codegraphAbsent · ensureFresh</text>
<text x="1116" y="661" text-anchor="middle" font-family="ui-monospace,Consolas,monospace" font-size="11" fill="#475569">cache</text>
<rect x="1296" y="590" width="248" height="86" rx="10" fill="#fff9db" stroke="#f08c00" stroke-width="2"/>
<rect x="1296" y="590" width="5" height="86" rx="2" fill="#f08c00"/>
<text x="1420" y="626" text-anchor="middle" font-family="system-ui,Segoe UI,sans-serif" font-size="15" font-weight="700" fill="#0b1324">Run codegraph</text>
<text x="1420" y="646" text-anchor="middle" font-family="ui-monospace,Consolas,monospace" font-size="11" fill="#475569">runCodegraph · 3-4s Node+WASM cold</text>
<text x="1420" y="661" text-anchor="middle" font-family="ui-monospace,Consolas,monospace" font-size="11" fill="#475569">start</text>
<rect x="1600" y="590" width="248" height="86" rx="10" fill="#ebfbee" stroke="#2f9e44" stroke-width="2"/>
<rect x="1600" y="590" width="5" height="86" rx="2" fill="#2f9e44"/>
<text x="1724" y="626" text-anchor="middle" font-family="system-ui,Segoe UI,sans-serif" font-size="15" font-weight="700" fill="#0b1324">Shape + Serena Hint</text>
<text x="1724" y="646" text-anchor="middle" font-family="ui-monospace,Consolas,monospace" font-size="11" fill="#475569">validateCgShape · hint on</text>
<text x="1724" y="661" text-anchor="middle" font-family="ui-monospace,Consolas,monospace" font-size="11" fill="#475569">empty/alias-prone</text>
<rect x="1904" y="590" width="248" height="86" rx="10" fill="#fff0f0" stroke="#e03131" stroke-width="2"/>
<rect x="1904" y="590" width="5" height="86" rx="2" fill="#e03131"/>
<text x="2028" y="626" text-anchor="middle" font-family="system-ui,Segoe UI,sans-serif" font-size="15" font-weight="700" fill="#0b1324">SubagentStop ABSENT</text>
<text x="2028" y="646" text-anchor="middle" font-family="ui-monospace,Consolas,monospace" font-size="11" fill="#475569">proposed_bus_updates never</text>
<text x="2028" y="661" text-anchor="middle" font-family="ui-monospace,Consolas,monospace" font-size="11" fill="#475569">committed</text>
<text x="80" y="714" font-family="system-ui,sans-serif" font-size="13" font-weight="800" fill="#94a3b8">NOTES</text>
</svg>